<svg width="724" height="27" viewBox="0 0 724 27" fill="none" xmlns="http://www.w3.org/2000/svg">
<path d="M11.7 26L0.36 0.439999H5.04L15.255 23.84H12.6L22.995 0.439999H27.405L16.02 26H11.7ZM46.0884 26V0.439999H50.4534V26H46.0884ZM76.9602 19.88L76.7352 14.705L90.8202 0.439999H95.6802L84.3852 12.32L81.9552 14.84L76.9602 19.88ZM73.0902 26V0.439999H77.4552V26H73.0902ZM91.2252 26L81.0552 14.12L83.8902 10.925L96.4002 26H91.2252ZM109.261 26L120.961 0.439999H125.281L137.026 26H132.616L122.401 2.735H123.886L113.536 26H109.261ZM114.616 19.925L115.786 16.46H129.826L130.996 19.925H114.616ZM199.207 18.71C199.207 20.27 198.787 21.62 197.947 22.76C197.137 23.9 195.952 24.785 194.392 25.415C192.862 26.045 191.002 26.36 188.812 26.36C186.832 26.36 184.897 26.09 183.007 25.55C181.147 24.98 179.692 24.23 178.642 23.3L180.352 19.88C181.372 20.69 182.647 21.365 184.177 21.905C185.707 22.415 187.312 22.67 188.992 22.67C191.152 22.67 192.667 22.325 193.537 21.635C194.407 20.915 194.842 20.075 194.842 19.115C194.842 18.275 194.557 17.615 193.987 17.135C193.447 16.625 192.712 16.235 191.782 15.965C190.852 15.665 189.832 15.395 188.722 15.155C187.642 14.915 186.547 14.645 185.437 14.345C184.357 14.045 183.352 13.64 182.422 13.13C181.522 12.62 180.787 11.93 180.217 11.06C179.647 10.16 179.362 9.035 179.362 7.685C179.362 6.155 179.782 4.82 180.622 3.68C181.462 2.54 182.647 1.655 184.177 1.025C185.707 0.394999 187.537 0.0799984 189.667 0.0799984C191.227 0.0799984 192.772 0.259999 194.302 0.62C195.832 0.949999 197.152 1.505 198.262 2.285L196.687 5.795C195.607 5.045 194.437 4.52 193.177 4.22C191.947 3.92 190.732 3.77 189.532 3.77C187.492 3.77 186.007 4.13 185.077 4.85C184.177 5.54 183.727 6.395 183.727 7.415C183.727 8.255 184.012 8.93 184.582 9.44C185.152 9.92 185.887 10.31 186.787 10.61C187.717 10.88 188.737 11.135 189.847 11.375C190.957 11.615 192.052 11.885 193.132 12.185C194.212 12.485 195.217 12.89 196.147 13.4C197.077 13.91 197.812 14.6 198.352 15.47C198.922 16.31 199.207 17.39 199.207 18.71ZM214.788 26L226.488 0.439999H230.808L242.553 26H238.143L227.928 2.735H229.413L219.063 26H214.788ZM220.143 19.925L221.313 16.46H235.353L236.523 19.925H220.143ZM260.833 26V0.439999H271.948C274.828 0.439999 277.318 0.964999 279.418 2.015C281.548 3.065 283.183 4.55 284.323 6.47C285.493 8.39 286.078 10.64 286.078 13.22C286.078 15.8 285.493 18.05 284.323 19.97C283.183 21.89 281.548 23.375 279.418 24.425C277.318 25.475 274.828 26 271.948 26H260.833ZM265.198 22.355H271.768C273.868 22.355 275.653 21.995 277.123 21.275C278.593 20.525 279.718 19.46 280.498 18.08C281.278 16.7 281.668 15.08 281.668 13.22C281.668 11.33 281.278 9.71 280.498 8.36C279.718 6.98 278.593 5.915 277.123 5.165C275.653 4.415 273.868 4.04 271.768 4.04H265.198V22.355ZM317.9 26.36C315.26 26.36 312.89 25.79 310.79 24.65C308.69 23.51 307.025 21.95 305.795 19.97C304.595 17.96 303.995 15.695 303.995 13.175C303.995 10.685 304.595 8.45 305.795 6.47C307.025 4.49 308.69 2.93 310.79 1.79C312.89 0.649998 315.26 0.0799984 317.9 0.0799984C320.57 0.0799984 322.94 0.649998 325.01 1.79C327.11 2.93 328.76 4.49 329.96 6.47C331.19 8.45 331.805 10.685 331.805 13.175C331.805 15.695 331.19 17.96 329.96 19.97C328.76 21.95 327.11 23.51 325.01 24.65C322.94 25.79 320.57 26.36 317.9 26.36ZM317.9 22.58C319.73 22.58 321.35 22.175 322.76 21.365C324.2 20.555 325.325 19.445 326.135 18.035C326.975 16.595 327.395 14.99 327.395 13.22C327.395 11.39 326.975 9.785 326.135 8.405C325.325 6.995 324.2 5.885 322.76 5.075C321.35 4.265 319.73 3.86 317.9 3.86C316.1 3.86 314.48 4.265 313.04 5.075C311.6 5.855 310.46 6.95 309.62 8.36C308.81 9.77 308.405 11.39 308.405 13.22C308.405 14.99 308.81 16.595 309.62 18.035C310.46 19.445 311.6 20.555 313.04 21.365C314.48 22.175 316.1 22.58 317.9 22.58ZM358.471 26L347.131 0.439999H351.811L362.026 23.84H359.371L369.766 0.439999H374.176L362.791 26H358.471ZM392.859 26V0.439999H396.459L412.884 20.6H411.219V0.439999H415.584V26H411.984L395.514 5.84H397.224V26H392.859ZM438.274 26V0.439999H442.639V26H438.274ZM469.146 19.88L468.921 14.705L483.006 0.439999H487.866L476.571 12.32L474.141 14.84L469.146 19.88ZM465.276 26V0.439999H469.641V26H465.276ZM483.411 26L473.241 14.12L476.076 10.925L488.586 26H483.411ZM517.508 26.36C514.868 26.36 512.498 25.79 510.398 24.65C508.298 23.51 506.633 21.95 505.403 19.97C504.203 17.96 503.603 15.695 503.603 13.175C503.603 10.685 504.203 8.45 505.403 6.47C506.633 4.49 508.298 2.93 510.398 1.79C512.498 0.649998 514.868 0.0799984 517.508 0.0799984C520.178 0.0799984 522.548 0.649998 524.618 1.79C526.718 2.93 528.368 4.49 529.568 6.47C530.798 8.45 531.413 10.685 531.413 13.175C531.413 15.695 530.798 17.96 529.568 19.97C528.368 21.95 526.718 23.51 524.618 24.65C522.548 25.79 520.178 26.36 517.508 26.36ZM517.508 22.58C519.338 22.58 520.958 22.175 522.368 21.365C523.808 20.555 524.933 19.445 525.743 18.035C526.583 16.595 527.003 14.99 527.003 13.22C527.003 11.39 526.583 9.785 525.743 8.405C524.933 6.995 523.808 5.885 522.368 5.075C520.958 4.265 519.338 3.86 517.508 3.86C515.708 3.86 514.088 4.265 512.648 5.075C511.208 5.855 510.068 6.95 509.228 8.36C508.418 9.77 508.013 11.39 508.013 13.22C508.013 14.99 508.418 16.595 509.228 18.035C510.068 19.445 511.208 20.555 512.648 21.365C514.088 22.175 515.708 22.58 517.508 22.58ZM558.079 26L546.739 0.439999H551.419L561.634 23.84H558.979L569.374 0.439999H573.784L562.399 26H558.079ZM586.388 26L598.088 0.439999H602.408L614.153 26H609.743L599.528 2.735H601.013L590.663 26H586.388ZM591.743 19.925L592.913 16.46H606.953L608.123 19.925H591.743ZM658.468 26V0.439999H668.908C671.158 0.439999 673.093 0.799999 674.713 1.52C676.333 2.21 677.593 3.23 678.493 4.58C679.393 5.9 679.843 7.52 679.843 9.44C679.843 11.33 679.393 12.95 678.493 14.3C677.593 15.65 676.333 16.685 674.713 17.405C673.093 18.125 671.158 18.485 668.908 18.485H660.898L662.833 16.415V26H658.468ZM662.833 16.91L661.168 14.84H668.638C670.858 14.84 672.538 14.375 673.678 13.445C674.848 12.515 675.433 11.18 675.433 9.44C675.433 7.7 674.848 6.365 673.678 5.435C672.538 4.505 670.858 4.04 668.638 4.04H661.168L662.833 1.97V16.91ZM700.455 26V0.439999H704.82V11.24H718.815V0.439999H723.18V26H718.815V14.84H704.82V26H700.455Z" fill="white"/>
</svg>
